<?xml version="1.0" encoding="UTF-8" standalone="no"?>
<!DOCTYPE svg PUBLIC "-//W3C//DTD SVG 1.1//EN" "http://www.w3.org/Graphics/SVG/1.1/DTD/svg11.dtd">
<svg width="100%" height="100%" viewBox="0 0 1286 1023" version="1.1" xmlns="http://www.w3.org/2000/svg" xmlns:xlink="http://www.w3.org/1999/xlink" xml:space="preserve" xmlns:serif="http://www.serif.com/" style="fill-rule:evenodd;clip-rule:evenodd;stroke-linejoin:round;stroke-miterlimit:2;">
    <g transform="matrix(1.39971,0,0,1.43341,-795.849,-1.29663)">
        <clipPath id="_clip1">
            <rect x="568.58" y="0.905" width="699.042" height="713.018"/>
        </clipPath>
        <g clip-path="url(#_clip1)">
            <g opacity="0.8">
                <g>
                    <g transform="matrix(1,0,0,1,1454.69,54.4046)">
                        <path d="M0,203.09C-2.65,202.506 -4.602,201.951 -6.486,203.412C-7.054,203.852 -6.974,204.79 -6.259,205.025C-4.132,205.726 -2.177,205.44 0,203.09M-80.132,51.58C-82.021,53.025 -84.701,52.175 -86.718,53.798C-82.577,58.331 -81.766,53.763 -80.132,51.58M-51.056,113.637C-53.854,112.108 -55.7,112.065 -57.176,114.179C-57.768,115.027 -57.853,116.542 -56.946,116.749C-54.383,117.335 -53.589,114.594 -51.056,113.637M-41.087,-13.895C-44.528,-14.677 -47.354,-18.95 -49.793,-12.621C-47.012,-14.354 -44.51,-11.086 -41.087,-13.895M-147.306,41.845C-144.069,43.097 -141.731,40.71 -138.975,39.757C-142.271,38.151 -144.772,39.795 -147.306,41.845M-13.249,200.488C-14.315,200.771 -16.566,200.082 -16.804,202.367C-16.985,204.114 -15.136,204.128 -13.888,204.331C-12.165,204.611 -10.98,203.936 -10.717,202.079C-10.47,200.339 -11.471,200.143 -13.249,200.488M20.71,236.452C18.259,234.855 16.083,235.088 14.056,235.252C12.219,235.399 11.585,237.072 11.938,238.59C12.385,240.503 14.023,239.862 15.193,239.35C16.932,238.591 18.565,237.595 20.71,236.452M-67.224,57.488C-67.083,56.48 -73.854,51.406 -74.807,51.76C-75.563,52.041 -75.878,52.867 -75.501,53.34C-73.867,55.389 -72.439,57.752 -69.96,58.865C-68.878,59.35 -67.663,58.809 -67.224,57.488M-46.388,107.13C-43.697,106.402 -41.831,110.871 -39.212,108.107C-38.224,107.064 -38.256,104.665 -39.63,104.16C-42.206,103.214 -44.485,104.67 -46.388,107.13M-181.081,-42.771C-185.491,-45.088 -193.988,-43.605 -198.169,-39.558C-192.195,-41.339 -186.605,-40.69 -181.081,-42.771M-247.083,-39.805C-236.953,-40.061 -234.861,-41.328 -235.084,-46.995C-238.312,-43.487 -243.62,-44.162 -247.083,-39.805M-204.526,-13.992C-207.685,-19.682 -207.693,-19.58 -213.306,-20.102C-215.15,-20.273 -216.619,-20.547 -216.932,-18.167C-217.244,-15.792 -215.683,-15.228 -213.899,-15.337C-210.876,-15.521 -208.034,-14.655 -204.526,-13.992M-242.114,-34.222C-241.417,-32.266 -239.295,-33.14 -238.438,-31.68C-237.705,-30.431 -237.681,-27.736 -235.412,-28.606C-233.874,-29.197 -232.749,-30.997 -231.581,-32.375C-230.769,-33.335 -230.777,-34.52 -231.471,-35.62C-232.167,-36.723 -233.293,-37.333 -234.441,-36.88C-236.946,-35.892 -239.853,-35.911 -242.114,-34.222M-40.223,113.51C-37.195,116.402 -34.138,117.312 -30.39,116.605C-27.086,115.982 -27.214,113.628 -27.26,111.299C-27.311,108.714 -29.339,108.635 -31.212,108.578C-35.153,108.458 -37.104,111.726 -40.223,113.51M-140.162,55.24C-136.225,55.287 -135.111,51.732 -132.813,49.786C-132.153,49.227 -131.899,48.259 -132.569,47.576C-133.59,46.536 -134.276,47.439 -134.956,48.206C-135.844,49.208 -136.433,51.756 -138.095,50.341C-141.364,47.561 -144.031,52.931 -147.195,50.615C-147.54,50.362 -149.534,52.156 -150.606,53.168C-151.454,53.968 -151.113,55.026 -150.536,55.891C-150.098,56.549 -149.301,56.604 -148.833,56.096C-146.146,53.178 -143.074,54.487 -140.162,55.24M-104.273,41.531C-96.864,42.235 -88.999,45.834 -82.579,39.541C-90.361,35.618 -97.163,39.733 -104.273,41.531M-18.099,98.526C-18.104,97.841 -18.674,96.891 -19.675,96.931C-24.898,97.141 -27.706,94.09 -29.949,89.936C-30.841,88.284 -32.223,89.04 -33.256,89.994C-35.395,91.967 -34.536,95.629 -31.651,96.451C-30.175,96.871 -28.725,97.097 -28.09,98.698C-27.301,100.688 -26.08,102.005 -24.04,100.363C-22.233,98.909 -20.194,100.206 -18.429,99.406C-18.225,99.314 -18.197,98.832 -18.099,98.526M-134.787,33.604C-137.573,32.117 -139.404,32.53 -141.324,32.877C-144.415,33.435 -147.856,34.073 -144.657,29.025C-143.63,27.403 -144.235,26.056 -145.954,25.514C-148.311,24.77 -149.623,26.539 -150.838,28.086C-151.884,29.417 -154.382,30.986 -152.715,32.507C-151.331,33.768 -150.649,36.724 -147.947,36.091C-143.961,35.157 -139.736,35.59 -134.787,33.604M-124.843,30.84C-117.997,31.961 -114.876,29.464 -114.807,23.329C-114.787,21.56 -116.122,20.33 -117.118,21.643C-119.313,24.536 -121.502,23.051 -123.721,22.378C-127.283,21.296 -129.083,23.165 -130.821,25.945C-122.517,27.731 -122.517,27.731 -124.843,30.84M-167.813,48.072C-166.447,48.828 -165.221,48.072 -163.956,47.93C-160.036,47.49 -155.877,44.01 -152.327,48.935C-151.8,49.667 -150.402,49.468 -149.634,48.622C-148.793,47.697 -149.369,46.897 -149.905,45.974C-153.161,40.369 -167.739,39.243 -172.049,44.36C-172.562,44.969 -172.589,45.907 -171.63,46.429C-168.929,44.818 -166.214,43.386 -162.629,44.067C-163.856,46.991 -166.522,46.449 -167.813,48.072M-60.549,124.246C-59.267,123.898 -57.946,123.294 -57.854,125.253C-57.78,126.783 -58.454,127.84 -60.215,127.715C-61.223,127.645 -62.354,127.469 -62.461,128.885C-62.503,129.443 -62.178,130.356 -61.754,130.564C-60.214,131.32 -58.773,130.527 -57.634,129.613C-55.869,128.198 -53.418,127.045 -53.44,124.406C-53.456,122.506 -55.286,122.066 -56.932,121.449C-61.289,119.818 -65.804,121.764 -70.219,120.56C-71.8,120.129 -73.199,122.007 -73.229,123.848C-73.253,125.463 -71.9,125.893 -70.481,126.158C-66.843,126.837 -63.838,124.402 -60.549,124.246M-89.674,67.257C-90.358,69.985 -89.292,71.203 -86.436,71.16C-85.313,71.143 -84.091,71.361 -83.077,71.827C-80.104,73.194 -78.922,70.69 -77.216,69.308C-76.408,68.653 -75.706,67.84 -76.371,66.769C-77.594,64.8 -79.628,64.461 -81.645,64.783C-84.924,65.307 -87.356,64.806 -88.833,61.336C-89.551,59.651 -91.582,59.012 -93.479,58.837C-94.638,58.73 -96.146,58.597 -96.485,59.913C-96.954,61.735 -95.143,61.347 -94.165,61.63C-91.337,62.448 -88.649,63.328 -89.674,67.257M-245.69,-53.405C-154.357,-53.405 -63.023,-53.38 28.31,-53.5C31.733,-53.505 32.409,-52.828 32.405,-49.405C32.287,52.595 32.31,154.595 32.31,256.595C30.504,255.011 24.48,255.629 29.188,250.607C29.409,250.372 29.321,249.633 29.128,249.257C27.7,246.489 22.868,245.504 19.234,247.427C26.604,248.695 20.937,251.377 21.145,254.825C17.71,250.55 12.897,248.915 14.702,243.547C8.533,244.538 3.693,240.273 4.162,234.489C4.285,232.972 3.581,232.643 2.591,232.638C-2.09,232.617 -4.757,229.055 -7.93,226.56C-10.705,224.379 -12.358,221.669 -7.738,219.318C-6.938,218.911 -5.819,217.71 -5.95,217.12C-7.091,211.982 -3.703,211.029 0.15,210.149C-3.049,209.329 -5.968,209.304 -8.516,211.676C-10.714,213.721 -12.934,215.743 -15.113,217.746C-16.761,216.084 -16.672,214.394 -16.775,212.728C-16.833,211.809 -16.949,210.085 -18.187,210.746C-22.424,213.006 -23.404,208.981 -25.139,207.139C-26.95,205.215 -28.393,202.742 -30.661,201.459C-33.237,200.002 -31.917,198.658 -31.079,197.115C-35.933,196.883 -35.968,196.902 -38.38,192.088C-38.767,191.316 -39.044,190.501 -39.861,190.214C-47.751,187.436 -42.28,186.469 -39.195,185.149C-38.588,184.889 -38.014,184.528 -38.11,183.509C-40.555,181.024 -42.505,185.206 -44.806,184.582C-44.979,182.525 -42.527,182.272 -42.794,180.114C-47.419,180.397 -51.664,180.768 -54.909,175.578C-56.6,172.875 -60.599,171.686 -60.842,167.302C-60.912,166.05 -62.908,164.553 -64.548,163.544C-73.102,158.277 -81.397,152.768 -85.098,142.604C-85.867,140.493 -86.634,137.194 -89.655,137.32C-93.093,137.464 -94.714,135.323 -97.315,133.481C-95.516,132.831 -93.783,132.755 -93.164,131.886C-90.667,128.386 -89.008,129.468 -87.588,133.299C-86.693,129.303 -86.724,128.669 -87.83,127.68C-89.304,126.363 -90.651,126.787 -92.357,127.592C-98.716,130.594 -107.464,124.38 -107.106,116.817C-110.597,118.813 -112.582,118.03 -113.334,113.978C-113.619,112.444 -114.515,110.924 -114.746,109.261C-114.923,107.983 -115.587,106.918 -116.991,107.073C-121.536,107.577 -124.171,105.257 -125.843,101.378C-126.438,99.997 -127.491,99.414 -128.979,99.343C-130.446,99.275 -131.746,98.367 -132.02,97.093C-133.287,91.186 -138.015,88.155 -142.028,84.489C-144.344,82.375 -147.715,80.489 -143.649,76.809C-142.566,75.829 -142.505,73.659 -144.153,72.927C-145.839,72.178 -145.569,74.208 -146.047,75.101C-146.467,75.886 -146.923,76.524 -148.333,76.005C-148.837,72.861 -148.243,69.877 -145.744,67.576C-144.456,66.39 -142.303,66.073 -141.136,67.307C-139.322,69.227 -143.021,68.826 -142.864,70.425C-140.503,71.11 -138.148,71.872 -135.747,72.441C-135.003,72.617 -133.976,72.44 -133.739,71.422C-133.657,71.07 -133.973,70.389 -134.298,70.215C-139.354,67.505 -136.839,67.152 -133.323,66.614C-131.445,66.328 -130.625,64.364 -129.62,62.903C-133.128,59.885 -137.256,58.502 -141.613,57.912C-144.144,57.569 -147.721,56.611 -148.614,59.804C-149.62,63.398 -144.903,61.149 -143.616,63.433C-146.39,65.315 -151.087,64.039 -152.324,68.942C-152.563,61.921 -159.188,61.988 -162.69,59.186C-170.1,53.256 -178.259,45.61 -182.007,37.541C-182.329,36.846 -183.022,36.014 -183.696,35.842C-186.97,35.006 -190.466,34.654 -189.005,29.633C-188.687,28.544 -190.433,28.661 -191.272,28.249C-197.081,25.395 -202.235,21.747 -206.24,16.507C-208.949,12.962 -210.537,9.952 -204.002,7.951C-207.509,6.89 -208.444,8.939 -209.867,10.22C-211.271,11.485 -214.695,11.653 -214.313,10.745C-212.813,7.182 -217.186,6.483 -216.872,4.547C-215.859,-1.704 -220.328,-4.32 -223.989,-7.588C-224.108,-7.695 -224.142,-7.902 -224.264,-8.001C-227.525,-10.658 -230.647,-13.765 -234.628,-15.061C-237.349,-15.948 -238.991,-17.376 -240.043,-19.683C-242.047,-24.077 -245.015,-27.674 -248.724,-30.754C-247.838,-32.418 -244.717,-32.267 -245.279,-34.581C-245.859,-36.969 -248.191,-34.967 -249.58,-35.667C-250.609,-36.187 -252.293,-36.359 -252.631,-37.141C-254.597,-41.691 -258.331,-42.639 -262.711,-42.971C-264.07,-43.074 -265.39,-44.232 -266.644,-45.037C-267.636,-45.673 -269.568,-46.147 -267.965,-47.877C-266.992,-48.928 -265.925,-48.91 -264.49,-47.921C-259.791,-44.679 -256.113,-47.051 -255.69,-53.405L-251.69,-53.405C-255.669,-48.303 -247.476,-49.743 -247.871,-46.414C-247.932,-45.906 -246.244,-45.491 -245.849,-46.344C-244.798,-48.613 -242.701,-51 -245.69,-53.405" style="fill:rgb(74,90,114);fill-rule:nonzero;"/>
                    </g>
                    <g transform="matrix(1,0,0,1,1487,172)">
                        <path d="M0,178C-6.701,170.352 -6.743,170.249 -16.082,174.097C-59.313,191.904 -102.503,209.809 -145.736,227.607C-172.209,238.507 -198.745,249.251 -225.234,260.109C-275.898,280.879 -326.544,301.69 -377.207,322.462C-396.608,330.417 -416.037,338.302 -435.444,346.241C-437.095,346.916 -903.135,540.079 -904.092,541.923L-918.42,528.501C-905.345,523.121 -455.86,338.212 -442.771,332.865C-407.184,318.328 -371.569,303.857 -335.997,289.283C-310.433,278.81 -284.926,268.198 -259.383,257.673C-237.846,248.799 -216.313,239.91 -194.742,231.117C-151.618,213.539 -108.464,196.031 -65.331,178.474C-50.543,172.454 -35.811,166.295 -20.985,160.368C-17.234,158.868 -16.208,157.87 -19.647,154.475C-40.692,133.693 -61.007,112.192 -81.647,91.015C-103.703,68.385 -125.517,45.527 -147.381,22.717C-168.328,0.865 -188.946,-21.303 -209.819,-43.228C-234.595,-69.251 -259.673,-94.989 -284.263,-121.186C-299.845,-137.786 -316.098,-153.761 -331,-171L-315,-171C-314.247,-169.926 -313.616,-168.735 -312.722,-167.795C-302.986,-157.558 -293.229,-147.341 -283.438,-137.156C-265,-117.974 -246.371,-98.972 -228.131,-79.604C-209.848,-60.189 -190.68,-41.638 -172.573,-22.054C-165.243,-14.125 -157.479,-6.601 -149.963,1.156C-123.454,28.51 -97.01,55.927 -70.46,83.24C-49.015,105.303 -27.408,127.209 -6.016,149.322C-4.062,151.342 -2.429,151.938 0,151L0,178Z" style="fill:rgb(74,90,114);fill-rule:nonzero;"/>
                    </g>
                    <g transform="matrix(1,0,0,1,804.504,30.5328)">
                        <path d="M0,49.079C-3.408,48.596 -5.453,49.691 -7.18,51.382C-7.624,51.816 -6.996,52.685 -6.324,52.855C-3.235,53.633 -2.231,51.134 0,49.079M-54.568,69.082C-54.672,68.253 -55.27,67.73 -56.184,67.751C-61.792,67.878 -66.965,69.684 -71.971,72.032C-72.745,72.395 -73.19,73.245 -72.675,74.133C-72.305,74.772 -71.556,74.946 -70.929,74.62C-66.552,72.34 -61.627,72.177 -56.988,70.921C-56.06,70.669 -55.047,70.333 -54.568,69.082M-49.368,66.148C-49.026,67.512 -47.658,67.625 -46.988,67.214C-42.19,64.267 -36.353,65.204 -31.365,62.741C-27.232,60.7 -23.56,57.067 -18.229,58.038C-17.228,58.221 -16.007,57.441 -14.955,56.958C-14.639,56.813 -14.326,56.109 -14.419,55.773C-14.518,55.416 -15.225,54.87 -15.451,54.957C-19.718,56.617 -24.896,54.567 -28.645,58.104C-29.672,59.074 -30.643,59.199 -31.977,59.478C-37.104,60.553 -42.109,62.213 -47.143,63.717C-48.29,64.06 -49.214,64.787 -49.368,66.148M258.496,-29.533C245.027,-23.731 230.853,-20.005 216.959,-15.463C173.622,-1.297 130.271,12.826 86.863,26.776C42.506,41.032 -1.924,55.061 -46.32,69.194C-56.278,72.364 -66.231,75.549 -75.826,78.612C-77.057,77.694 -76.374,76.979 -76.514,76.514C-78.444,70.043 -73.416,69.62 -69.46,68.34C-39.869,58.767 -10.254,49.272 19.32,39.651C58.413,26.933 97.476,14.122 136.551,1.353C166.305,-8.37 196.061,-18.088 225.812,-27.819C227.391,-28.336 228.936,-28.959 230.496,-29.533L258.496,-29.533Z" style="fill:rgb(74,90,114);fill-rule:nonzero;"/>
                    </g>
                    <g transform="matrix(1,0,0,1,1242,502.013)">
                        <path d="M0,18.987C1.495,15.219 -1.304,14.712 -3.783,14.247C-5.972,13.837 -7.992,14.945 -10.524,15.731C-8.905,11.543 -11.532,10.948 -14.018,12.093C-19.853,14.783 -20.819,8.604 -24.217,6.962C-24.842,6.66 -24.598,4.886 -23.888,4.85C-19.237,4.613 -16.625,0 -10.822,0.619C-3.854,1.362 0.978,5.777 7.181,7.32C8.032,7.532 9.395,7.588 9.383,8.942C9.37,10.259 8.328,11.364 7.239,11.372C1.702,11.412 2.192,15.393 2,18.987L0,18.987Z" style="fill:rgb(74,90,114);fill-rule:nonzero;"/>
                    </g>
                    <g transform="matrix(1,0,0,1,1261,511.813)">
                        <path d="M0,9.187C0.099,7.592 -3.287,6.652 -0.82,4.59C1.455,2.689 3.558,0.494 6.669,0.056C7.069,0 7.829,0.766 8.018,1.295C8.413,2.411 7.628,3.376 6.779,3.757C4.314,4.865 3.002,6.859 2,9.187L0,9.187Z" style="fill:rgb(74,90,114);fill-rule:nonzero;"/>
                    </g>
                    <g transform="matrix(1,0,0,1,1136,9.162)">
                        <path d="M0,-8.162C-0.134,-6.281 1.413,-5.785 2.597,-4.954C3.774,-4.127 3.822,-2.999 2.913,-2.005C2.163,-1.184 1.173,0 0.298,-0.007C-1.21,-0.018 -0.942,-1.658 -0.932,-2.735C-0.912,-4.84 -1.998,-6.474 -3,-8.162L0,-8.162Z" style="fill:rgb(74,90,114);fill-rule:nonzero;"/>
                    </g>
                    <g transform="matrix(1,0,0,1,1190,4.733)">
                        <path d="M0,-3.733C-1.541,-0.144 -5.086,0 -7.888,-0.275C-11.358,-0.616 -9.237,-2.485 -8,-3.733L0,-3.733Z" style="fill:rgb(74,90,114);fill-rule:nonzero;"/>
                    </g>
                    <g transform="matrix(1,0,0,1,1098,6.595)">
                        <path d="M0,-5.595C0.287,-3.866 1.588,-2.846 3.039,-1.825C-1.983,0 -2.248,-0.179 -3,-5.595L0,-5.595Z" style="fill:rgb(74,90,114);fill-rule:nonzero;"/>
                    </g>
                    <g transform="matrix(1,0,0,1,1370.53,32.5629)">
                        <path d="M0,322.86C3.559,325.169 6.274,324.969 10.006,324.796C6.673,322.826 4.146,322 0,322.86M-32.342,289.289C-33.384,289.313 -34.625,289.226 -34.651,290.51C-34.687,292.183 -33.073,292.433 -31.893,292.692C-30.687,292.956 -29.447,292.319 -29.461,290.995C-29.48,289.121 -31.295,289.661 -32.342,289.289M-200.752,-3.808C-200.697,-5.244 -201.718,-5.386 -202.714,-5.385C-204.206,-5.384 -205.248,-4.75 -205.152,-3.068C-205.09,-1.969 -204.488,-1.119 -203.337,-1.241C-201.885,-1.393 -201.195,-2.543 -200.752,-3.808M-49.64,227.911C-48.166,227.848 -47.493,227.005 -47.565,225.679C-47.64,224.304 -48.151,222.751 -49.755,223.005C-51.362,223.258 -50.873,225.394 -51.73,226.552C-52.215,227.207 -50.502,227.652 -49.64,227.911M-38.586,285.147C-37.472,285 -36.096,285.047 -36.225,283.398C-36.332,282.012 -37.494,281.59 -38.697,281.541C-39.998,281.486 -40.954,282.07 -40.989,283.488C-41.029,285.158 -39.763,285.118 -38.586,285.147M-185.986,76.045C-187.268,77.826 -188.238,79.175 -189.314,80.671C-187.293,81.213 -185.307,82.233 -184.286,80.729C-183.376,79.389 -184.684,77.718 -185.986,76.045M-207.853,44.96C-210.994,44.39 -213.312,43.649 -215.312,45.202C-216.126,45.834 -215.016,46.624 -214.347,47.071C-211.847,48.743 -210.087,47.639 -207.853,44.96M-34.79,195.931C-33.606,193.991 -34.87,191.852 -32.71,191.053C-31.87,190.742 -29.71,191.649 -30.592,189.587C-31.288,187.959 -33.238,188.17 -34.469,189.168C-36.702,190.979 -37.023,193.163 -34.79,195.931M-23.028,249.756C-24.355,249.69 -25.937,249.518 -25.776,251.101C-25.574,253.098 -23.651,253.377 -21.99,253.462C-20.631,253.531 -18.758,253.084 -18.867,251.744C-19.076,249.188 -21.798,250.601 -23.028,249.756M-105.042,226.978C-102.495,225.913 -99.949,224.848 -97.402,223.783C-102.356,224.744 -100.97,220.27 -102.63,216.639C-103.147,221.117 -102.846,224.369 -105.042,226.978M-82.52,199.435C-82.487,197.475 -83.559,196.434 -85.364,196.075C-86.639,195.821 -87.884,196.092 -87.577,197.68C-87.258,199.332 -87.174,201.494 -84.948,201.859C-83.364,202.118 -82.737,200.843 -82.52,199.435M-142.513,194.925C-141.062,192.923 -143.861,190.022 -140.253,189.673C-138.963,189.548 -137.302,189.767 -136.99,188.079C-136.778,186.931 -138.078,186.608 -138.988,186.206C-140.899,185.362 -141.586,186.845 -142.595,187.947C-144.639,190.18 -144.213,192.291 -142.513,194.925M-1.978,275.081C-3.655,274.001 -4.673,271.005 -6.798,272.836C-8.064,273.926 -9.128,277.428 -7.955,278.166C-5.045,279.996 -4.716,275.09 -1.978,275.081M-137.612,151.129C-135.775,152.792 -134.938,155.529 -132.02,154.202C-130.799,153.648 -130.451,151.986 -131.293,150.709C-133.377,147.547 -135.187,150.296 -137.612,151.129M-56.129,158.3C-59.151,156.709 -61.44,158.207 -63.781,158.519C-64.773,158.652 -65.941,158.873 -65.588,160.259C-65.326,161.29 -64.392,161.917 -63.301,161.806C-60.617,161.533 -58.563,160.032 -56.129,158.3M-129.195,165.78C-127.119,163.596 -125.333,162.89 -122.977,163.877C-121.972,164.298 -120.85,162.967 -120.568,161.833C-120.405,161.174 -120.76,160.193 -121.214,159.619C-121.921,158.721 -122.95,158.852 -123.861,159.487C-125.929,160.931 -128.642,161.772 -129.195,165.78M-43.035,320.443C-44.536,320.308 -45.847,320.059 -47.144,320.119C-48.11,320.164 -49.272,320.6 -48.958,321.891C-48.683,323.02 -47.703,322.595 -46.943,322.283C-43.767,320.976 -40.938,321.287 -38.487,323.911C-37.328,325.151 -36.381,323.868 -35.485,323.348C-35.003,323.069 -34.397,322.296 -34.482,321.873C-34.748,320.545 -35.909,320.904 -36.88,320.911C-39.008,320.925 -41.061,319.901 -43.035,320.443M-15.878,288.626C-14.947,289.658 -14.07,290.397 -13.486,291.323C-11.884,293.86 -9.771,292.637 -7.783,292.199C-6.921,292.008 -6.194,291.316 -6.604,290.427C-7.448,288.593 -9.433,288.354 -11.077,287.768C-12.549,287.245 -13.955,288.044 -15.878,288.626M-166.71,121.939C-166.672,126.914 -169.228,128.726 -174.6,128.078C-170.777,130.832 -168.242,130.98 -165.565,128.725C-163.001,126.564 -164.485,124.728 -166.71,121.939M51.407,304.538C46.922,300.926 44.4,304.112 41.396,306.187C45.674,310.684 48.154,306.717 51.407,304.538M-144.907,82.33C-146.597,84.338 -147.53,85.46 -148.479,86.569C-149.103,87.297 -149.257,87.886 -148.354,88.602C-146.69,89.922 -140.022,89.714 -137.49,87.656C-141.391,87.867 -144.264,87.02 -144.907,82.33M-138.011,156.546C-138.619,155.765 -138.822,155.262 -139.185,155.082C-140.537,154.412 -145.842,157.013 -146.175,158.506C-146.577,160.306 -145.849,161.753 -144.443,162.812C-143.988,163.155 -143.275,163.156 -142.681,163.313C-142.214,160.383 -142.332,157.107 -138.011,156.546M-113.696,102.092C-110.94,102.455 -108.038,105.57 -105.721,101.745C-104.759,100.157 -105.959,98.351 -107.093,97.932C-110.503,96.672 -111.635,100.142 -113.696,102.092M-156.922,81.636C-156.435,83.465 -155.494,85.13 -153.655,85.02C-150.966,84.858 -149.882,82.248 -149.365,80.238C-148.908,78.457 -151.177,78.063 -152.629,78.222C-154.677,78.447 -156.416,79.403 -156.922,81.636M-186.94,62.827C-183.407,58.87 -182.303,53.239 -177.319,50.297C-179.813,50.096 -183.475,49.818 -183.534,51.061C-183.74,55.359 -187.021,58.454 -186.94,62.827M-208.234,124.624C-205.692,125.816 -204.224,119.946 -201.552,123.945C-200.909,124.908 -199.372,126.14 -198.891,124.888C-198.137,122.922 -197.706,120.444 -199.261,118.403C-200.123,117.271 -201.802,116.293 -202.537,117.627C-204.016,120.309 -207.635,121.255 -208.234,124.624M-110.396,206.552C-112.684,205.15 -114.849,203.242 -117.36,202.486C-119.051,201.977 -120.313,204.058 -119.924,205.876C-119.366,208.479 -116.934,209.597 -114.744,209.603C-113.358,209.607 -111.117,208.997 -110.396,206.552M-158.81,132.157C-156.907,131.693 -155.735,130.542 -155.481,129.168C-154.943,126.248 -154.963,123.031 -157,120.784C-158.218,119.441 -159.268,122.016 -160.613,122.479C-162.441,123.107 -162.812,124.67 -161.203,125.853C-159.056,127.432 -159.237,129.806 -158.81,132.157M53.073,300.228C56.214,299.712 58.92,299.789 61.654,300.35C63.812,300.793 65.949,299.935 67.585,298.346C68.437,297.518 69.2,296.433 67.722,295.479C65.796,294.237 55.296,297.415 53.073,300.228M-89.452,142.952C-87.596,138.686 -83.236,140.249 -80.775,137.721C-80.131,137.058 -78.806,136.876 -79.365,135.644C-79.652,135.013 -80.491,134.443 -81.197,134.224C-87.825,132.175 -90.802,134.942 -89.452,142.952M-13.743,265.296C-16.702,265.555 -19.535,266.362 -22.16,267.756C-23.005,268.204 -23.666,269.155 -23.371,270.24C-23.024,271.518 -21.874,271.307 -20.922,271.226C-18.489,271.021 -16.066,270.703 -13.633,270.519C-11.137,270.331 -10.834,268.112 -10.704,266.608C-10.53,264.608 -12.58,265.546 -13.743,265.296M-55.543,287.426C-56.655,291.839 -59.285,291.839 -62.441,290.93C-63.704,290.567 -65.182,290.887 -65.83,292.366C-66.352,293.558 -65.458,294.705 -64.598,294.593C-60.774,294.101 -58.595,297.219 -54.541,299.349C-56.943,294.948 -52.473,291.68 -55.543,287.426M-113.151,237.344C-113.614,234.568 -111.465,231.931 -112.318,230.147C-113.428,227.832 -116.597,227.174 -119.345,227.636C-120.847,227.889 -123.226,227.817 -123.328,229.775C-123.42,231.506 -122.105,233.164 -120.022,233.603C-117.507,234.133 -114.993,234.67 -113.151,237.344M-175.534,35.374C-174.273,35.229 -173.36,35.334 -172.648,35.003C-170.608,34.054 -167.552,33.048 -168.304,30.504C-169.214,27.426 -171.989,28.735 -174.117,29.814C-175.286,30.406 -176.419,31.36 -177.757,30.294C-179.233,29.117 -180.876,27.571 -182.056,30.297C-183.269,33.097 -180.584,33.502 -178.904,34.291C-177.729,34.843 -176.416,35.1 -175.534,35.374M-149.816,73.582C-143.146,74.97 -137.589,70.915 -132.095,73.791C-131.197,74.261 -129.829,72.07 -129.133,70.795C-128.155,69.007 -128.762,66.866 -130.792,67.297C-136.903,68.593 -143.21,69.568 -149.816,73.582M-176.56,97.479C-174.442,95.662 -175.726,88.126 -169.987,93.92C-169.328,94.586 -168.595,93.435 -168.235,92.719C-167.699,91.652 -167.229,89.834 -168.311,89.63C-170.639,89.19 -172.481,85.961 -175.392,88.376C-176.956,89.674 -178.506,91.21 -180.655,88.4C-181.953,86.703 -184.798,87.987 -185.952,89.172C-187.117,90.369 -184.905,91.514 -184.161,92.701C-182.317,95.643 -178.475,94.917 -176.56,97.479M-25.171,325.391C-23.956,324.951 -22.195,324.906 -21.166,323.31C-20.807,322.753 -20.394,322.051 -19.626,322.308C-18.658,322.633 -18.677,323.593 -18.76,324.408C-18.861,325.393 -19.054,326.38 -19.315,327.336C-19.623,328.461 -20.31,329.719 -18.494,330.073C-17.101,330.343 -15.908,329.392 -16.146,328.169C-17.015,323.706 -13.53,323.068 -10.844,321.655C-9.818,321.117 -8.426,320.497 -9.196,319.12C-9.845,317.961 -11.366,318.106 -12.311,318.85C-15.15,321.088 -18.055,320.738 -21.271,319.8C-23.535,319.14 -26.175,320.406 -28.33,318.394C-28.921,317.842 -29.811,318.725 -30.101,319.605C-30.943,322.166 -28.319,325.49 -25.171,325.391M11.01,310.498C8.707,309.935 7.343,312.099 5.457,312.905C5.216,313.008 5.135,314.213 5.398,314.66C8.472,319.881 18.462,319.56 21.599,314.17C22.085,313.335 22.882,312.435 22.221,311.447C21.575,310.482 20.461,310.74 19.486,310.927C16.687,311.464 13.903,311.712 11.01,310.498M-176.091,72.77C-174.016,70.278 -173.846,67.459 -173.852,64.491C-173.861,59.789 -170.7,55.671 -166.32,54.407C-164.537,53.893 -162.974,53.13 -163.819,51.054C-164.559,49.241 -166.022,48.31 -168.243,49.3C-171.705,50.842 -178.958,62.05 -178.821,66.003C-178.801,66.617 -178.623,67.643 -178.272,67.763C-175.648,68.66 -176.559,70.849 -176.091,72.77M44.637,296.854C46.82,296.588 49.618,296.465 52.253,294.492C54.826,292.565 54.498,291.554 52.351,289.81C48.039,286.308 44.108,288.673 39.863,290.051C36.524,291.135 37.236,292.754 38.294,294.84C39.516,297.253 41.748,296.984 44.637,296.854M-36.28,244.616C-36.281,248.029 -38.424,250.016 -40.747,252.004C-42.234,253.276 -43.85,255.04 -42.079,257.09C-40.489,258.931 -38.153,258.863 -36.104,257.901C-34.419,257.109 -32.894,255.858 -34.281,253.606C-34.961,252.502 -35.117,251.324 -34.264,250.373C-33.044,249.014 -32.318,250.244 -31.53,251.102C-30.576,252.142 -29.827,251.595 -29.112,250.71C-27.249,248.401 -28.493,245.627 -28.032,243.106C-28.001,242.93 -29.396,242.436 -30.16,242.193C-30.804,241.989 -31.821,242.042 -31.652,242.847C-30.343,249.108 -33.938,244.653 -36.28,244.616M-200.535,49.857C-200.217,50.118 -199.898,50.378 -199.58,50.638C-199.13,50.507 -198.417,50.512 -198.27,50.226C-195.862,45.543 -192.196,42.983 -187.011,41.455C-182.383,40.091 -182.406,37.877 -185.9,34.234C-186.47,33.64 -187.008,32.99 -187.438,32.292C-188.313,30.87 -189.622,30.016 -191.166,30.437C-192.764,30.873 -192.322,32.601 -192.562,33.851C-192.982,36.039 -191.783,38.649 -194.068,40.35C-197.404,42.835 -197.455,47.248 -200.535,49.857M-183.865,117.388C-180.646,117.653 -178.426,118.188 -176.252,119.692C-173.556,121.556 -166.6,118.924 -165.727,115.846C-165.052,113.469 -166.651,111.299 -167.592,109.263C-168.471,107.361 -170.521,107.826 -172.427,108.225C-176.389,109.055 -179.64,111.742 -184.465,112.134C-179.166,113.487 -178.63,115.023 -183.865,117.388M-7.253,249.616C-9.568,249.698 -11.368,249.3 -13.571,251.847C-15.72,254.329 -17.312,258.18 -21.154,259.08C-24.019,259.751 -26.647,261.382 -28.376,263.291C-31.542,266.786 -36.479,265.972 -39.749,269.047C-41.051,270.27 -43.348,269.237 -44.274,267.28C-45.539,264.611 -47.645,263.964 -50.451,264.277C-47.524,267.693 -47.932,268.576 -53.188,270.013C-52.491,267.551 -53.315,265.429 -54.037,263.217C-55.196,259.667 -58.535,261.006 -60.797,260.138C-61.769,259.765 -62.446,262.24 -62.396,263.302C-62.249,266.426 -59.603,264.462 -58.143,265.011C-57.168,265.379 -56.194,265.773 -56.01,266.877C-55.776,268.273 -56.303,269.504 -57.417,270.395C-58.337,271.131 -60.202,270.617 -60.304,272.905C-55.752,272.319 -55.91,276.236 -54.476,278.834C-53.66,280.308 -53.051,282.823 -50.783,282.203C-48.822,281.667 -48.53,279.526 -48.874,277.579C-49.411,274.537 -47.435,273.321 -45.081,272.663C-42.952,272.067 -41.26,272.614 -40.402,275.084C-39.486,277.722 -37.241,278.877 -34.664,279.747C-34.292,278.049 -35.043,277.39 -35.703,276.613C-37.974,273.94 -34.293,272.698 -34.131,270.536C-34.054,269.508 -32.765,268.812 -31.82,269.623C-28.771,272.236 -27.883,269.511 -26.602,267.675C-25.771,266.484 -25.129,264.409 -24.118,264.214C-16.887,262.828 -11.143,257.839 -4.062,256.214C-3.066,255.986 -1.836,255.94 -1.746,254.775C-1.638,253.377 -3.021,253.411 -3.938,253.409C-6.641,253.404 -7.26,251.692 -7.406,249.485C-4.554,249.258 -2.042,248.069 0.436,246.754C1.933,245.959 2.609,245.244 0.682,244.071C-1.713,242.613 -4.403,241.8 -6.69,243.404C-8.785,244.872 -8.637,247.39 -7.253,249.616M-147.274,179.206C-148.777,177.882 -150.29,177.302 -152.523,177.171C-159.002,176.789 -164.573,181.095 -171.033,180.307C-171.222,180.284 -171.5,181.004 -171.549,181.082C-166.636,185.721 -160.188,179.778 -155.146,183.862C-154.59,184.312 -153.425,183.58 -153.15,182.778C-152.145,179.849 -149.454,179.809 -147.147,179.082C-148.603,181.11 -149.566,183.001 -146.377,184.441C-145.512,184.832 -146.868,187.249 -144.837,186.777C-143.533,186.473 -143.575,185.033 -143.781,183.809C-143.954,182.785 -143.509,181.114 -142.574,181.881C-137.688,185.89 -133.875,180.131 -129.365,180.686C-127.698,180.892 -126.681,179.134 -128.417,177.633C-129.936,176.319 -131.291,174.018 -133.909,175.548C-135.788,176.645 -137.424,175.047 -139.218,175.205C-140.089,175.282 -140.875,174.893 -140.971,173.858C-141.054,172.961 -140.671,172.212 -139.872,171.801C-138.843,171.271 -137.762,170.843 -136.703,170.369C-135.935,170.024 -135.072,169.667 -135.539,168.594C-135.913,167.735 -136.863,167.322 -137.611,167.622C-140.156,168.644 -143.598,170 -143.726,172.471C-143.889,175.654 -145.833,177.104 -147.274,179.206M-182.316,122.534C-181.222,123.285 -180.152,124.077 -179.025,124.777C-177.801,125.538 -176.457,126.021 -175.782,124.196C-175.256,122.771 -176.235,122.023 -177.496,121.704C-179.187,121.277 -181.067,120.096 -182.199,122.626C-187.608,124.252 -183.914,127.541 -184.096,131.495C-182.241,128.824 -179.442,127.774 -182.935,125.517C-183.997,124.831 -183.105,123.432 -182.316,122.534M-68.182,308.81C-69.508,309.757 -70.647,310.794 -71.702,312.134C-74.356,315.51 -78.261,315.374 -81.095,312.249C-82.088,311.153 -82.001,310.552 -80.461,310.353C-79.999,310.294 -79.144,310.097 -79.147,310.071C-80.394,302.177 -75.851,306.62 -72.938,306.996C-70.568,307.3 -68.983,306.148 -68.432,303.442C-67.653,299.62 -70.489,298.301 -72.764,296.793C-73.741,296.143 -75.754,296.508 -75.502,294.743C-75.281,293.19 -73.646,293.803 -72.552,293.939C-68.188,294.479 -68.662,291.3 -68.626,288.709C-68.582,285.496 -68.186,282.885 -63.904,284.078C-62.264,284.613 -60.586,286.154 -59.042,283.984C-58.201,282.802 -56.659,281.604 -57.405,280.059C-58.512,277.768 -60.952,278.176 -64.929,277.377C-60.781,280.475 -62.584,282.308 -63.941,284.206C-63.729,281.483 -65.149,279.603 -67.482,278.752C-72.083,277.072 -75.333,274.556 -74.805,269.007C-74.733,268.97 -74.451,268.827 -74.169,268.684C-72.278,267.726 -70.142,271.801 -68.602,268.648C-67.71,266.823 -72.885,262.106 -75.714,261.955C-77.172,261.878 -78.78,262.716 -80.046,261.569C-81.74,260.032 -82.191,257.165 -80.873,256.22C-78.744,254.696 -79.291,251.881 -77.329,250.541C-77.084,250.794 -76.907,250.892 -76.867,251.03C-76.144,253.57 -78.78,256.584 -76.727,258.541C-74.374,260.783 -73.075,255.25 -70.375,257.279C-69.915,255.172 -72.528,254.714 -71.786,252.85C-69.817,252.592 -68.627,255.499 -66.373,254.227C-66.158,252.429 -67.864,251.806 -68.619,250.618C-69.575,249.114 -70.06,247.86 -67.659,247.375C-66.704,247.182 -65.439,247.033 -65.822,245.652C-66.139,244.512 -67.573,244.255 -68.342,244.596C-71.492,245.996 -75.12,243.478 -78.282,246.43C-80.382,248.391 -81.552,246.154 -81.272,244.009C-80.893,241.098 -81.415,238.726 -83.994,237.075C-85.477,237.683 -85.438,239.195 -85.926,240.4C-87.711,240.581 -89.505,240.698 -91.279,240.955C-93.902,241.335 -95.659,242.424 -94.578,245.521L-94.449,245.375C-95.601,245.235 -96.757,244.944 -97.902,244.979C-106.679,245.25 -107.773,244.476 -109.854,236.086C-112.256,237.61 -111.556,239.719 -111.459,241.833C-111.354,244.116 -109.74,247.47 -114.528,247.284C-115.734,247.237 -116.164,248.818 -116.436,249.946C-116.931,252.007 -118.114,253.089 -120.283,253.085C-123.815,253.079 -123.412,255.136 -122.512,257.428L-122.356,257.295C-124.928,258.17 -128.04,257.075 -130.535,261.115C-130.325,257.381 -130.697,255.127 -129.995,253.28C-128.207,248.578 -130.21,248.707 -133.587,250.022C-134.157,250.245 -134.754,250.398 -135.653,250.683C-135.549,248.537 -135.348,246.94 -132.944,247.265C-128.997,247.799 -128.532,245.478 -128.647,242.389C-128.696,241.098 -128.345,239.757 -127.974,238.499C-127.728,237.668 -126.951,237.111 -126.019,237.432C-125.118,237.743 -125.647,238.46 -125.675,239.1C-125.798,242.003 -125.361,244.907 -126.32,247.797C-126.751,249.096 -126.082,250.701 -124.514,250.841C-122.219,251.048 -123.021,249.298 -123.145,248.049C-123.438,245.117 -122.264,243.975 -119.318,244.873C-118.151,245.228 -116.995,245.195 -116.144,243.524C-118.328,242.294 -119.771,240.62 -120.703,237.955C-122.328,233.303 -127.7,232.886 -130.754,236.694C-131.335,237.419 -131.585,238.63 -132.981,237.668C-135.725,235.779 -131.776,232.638 -134.419,230.457C-135.038,229.945 -132.665,228.913 -131.608,228.227C-130.905,227.77 -129.822,227.553 -129.664,228.764C-129.406,230.741 -128.498,231.215 -127.146,229.874C-126.021,228.759 -124.636,227.272 -125.716,225.525C-126.599,224.099 -128.035,224.774 -129.285,225.394C-132.542,227.009 -135.813,228.515 -137.027,223.138C-137.584,220.675 -136.059,218.978 -134.563,217.449C-132.614,215.456 -131.784,213.541 -131.804,210.471C-131.82,207.931 -129.307,205.464 -132.096,202.782C-132.494,202.398 -131.115,201.695 -130.289,202.157C-128.967,202.898 -127.678,203.592 -125.979,202.971C-127.459,199.552 -131.94,198.732 -132.45,194.445C-132.678,192.53 -137.979,193.18 -139.099,195.56C-140.038,197.554 -141.231,199.486 -140.619,202.145C-140.08,204.486 -141.67,205.817 -143.871,203.951C-148.02,200.433 -152.725,197.292 -153.703,191.247C-153.93,189.847 -154.378,187.702 -156.315,188.438C-158.119,189.124 -156.535,190.68 -156.11,191.799C-155.605,193.13 -155.701,194.403 -156.216,195.687C-156.738,196.99 -157.425,198.153 -159.076,197.944C-160.755,197.732 -161.229,196.45 -161.139,195.023C-160.938,191.887 -161.165,188.885 -163.36,185.301C-164.749,189.705 -164.14,193.529 -164.272,197.068C-164.43,201.215 -164.799,203.601 -169.678,202.576C-170.351,201.475 -169.345,200.956 -168.697,200.228C-165.974,197.162 -166.362,194.83 -169.985,192.735C-170.939,192.183 -172.508,192.254 -172.383,190.696C-172.28,189.425 -170.942,189.548 -170.027,189.283C-168.559,188.86 -167.608,188.006 -168.021,186.39C-168.46,184.669 -169.69,184.56 -171.158,185.144C-171.604,185.321 -175.124,181.739 -175.212,181.591C-180.758,172.298 -174.265,169.488 -173.867,168.674C-172.614,166.112 -170.2,164.533 -168.453,162.68C-163.579,157.51 -159.626,151.445 -154.3,146.459C-152.21,144.504 -158.31,142.971 -155.66,139.538C-159.137,141.703 -161.081,145.047 -165.467,144.453C-167.026,144.242 -167.367,146.819 -167.044,148.59C-166.861,149.593 -166.81,151.138 -167.804,151.155C-169.848,151.189 -170.184,148.401 -172.232,147.839C-173.079,147.607 -172.537,146.448 -171.807,145.853C-170.896,145.11 -168.757,145.043 -169.793,143.129C-170.603,141.633 -171.852,143.168 -172.894,143.14C-175.051,143.082 -174.736,142.064 -173.889,140.559C-169.331,132.464 -169.312,132.01 -177.758,129.502C-181.057,128.522 -182.612,132.609 -184.102,134.699C-186.712,138.361 -188.651,142.364 -193.39,143.774C-193.922,143.932 -194.635,144.556 -194.703,145.043C-195.065,147.63 -197.051,144.377 -195.829,139.93C-195.169,137.53 -194.132,135.621 -191.308,135.331C-189.103,135.105 -188.204,133.237 -189.082,131.764C-190.74,128.983 -189.694,126.452 -188.759,123.005C-194.7,126.466 -200.367,128.788 -205.007,132.568C-208.735,135.605 -218.055,130.706 -217.07,127.694C-216.619,126.314 -219.007,125.999 -219.967,126.293C-226.207,128.208 -228.365,121.776 -232.842,120.062C-234.944,119.257 -233.141,115.736 -235.42,114.05C-232.407,116.619 -229.667,115.559 -226.964,114.167C-225.785,113.56 -224.494,112.423 -223.329,113.549C-219.715,117.04 -215.111,115.458 -211,115.994C-207.82,116.409 -205.298,114.213 -204.896,110.864C-204.609,108.493 -203.139,108.305 -201.507,108.042C-199.486,107.715 -199.334,109.009 -198.824,110.65C-197.469,115.017 -195.619,119.232 -193.806,123.921C-191.912,122.339 -191.411,119.927 -189.213,118.823C-190.785,117.626 -193.847,118.727 -193.141,115.749C-192.505,113.068 -192.427,109.822 -189.577,108.42C-187.943,107.616 -188.508,109.951 -187.586,111.048C-185.514,107.976 -183.783,104.766 -180.511,103.122C-179,102.363 -179.106,101.558 -179.942,100.411C-180.709,99.36 -181.124,97.902 -182.738,97.842C-184.532,97.776 -184.026,99.058 -184.285,100.205C-185.254,104.5 -189.5,106.02 -196.163,104.251C-198.573,103.611 -200.914,102.769 -203.421,102.608C-204.829,102.517 -206.153,102.244 -206.537,100.666C-206.96,98.927 -205.444,98.387 -204.363,97.738C-203.235,97.062 -201.96,96.63 -200.756,96.078C-199.613,95.555 -198.271,94.403 -199.626,93.573C-203.555,91.166 -200.771,88.4 -200.554,85.725C-200.415,84.004 -198.775,81.959 -200.638,80.595C-202.368,79.327 -204.03,80.721 -205.579,81.782C-206.355,82.315 -207.528,82.266 -208.311,82.793C-211.077,84.654 -216.754,83.729 -215.169,89.945C-214.972,90.722 -216.187,91.956 -218.521,92.54C-216.138,87.161 -221.107,85.739 -223.124,82.601C-224.565,80.358 -226.773,79.322 -229.445,79.229C-230.521,79.191 -232.174,79.806 -232.335,78.205C-232.484,76.728 -230.915,76.056 -229.684,75.607C-227.646,74.864 -224.633,75.703 -224.751,70.628C-222.155,75.536 -219.105,76.093 -215.47,74.638C-213.918,74.017 -211.918,73.141 -211.198,75.312C-210.451,77.565 -212.833,77.745 -214.267,78.378C-215.449,78.901 -216.662,79.355 -218.58,80.129C-214.133,82.285 -211.214,79.653 -209.591,77.589C-206.582,73.763 -203.069,73.981 -199.094,74.199C-197.68,74.276 -194.402,74.561 -195.166,73.09C-196.32,70.869 -193.868,65.7 -199.515,66.423C-201.32,66.654 -203.153,66.877 -204.962,66.806C-206.731,66.736 -207.656,65.339 -206.131,64.248C-203.626,62.456 -204.758,60.957 -205.83,59.244C-207.306,56.888 -209.18,57.889 -211.036,58.425C-211.147,60.358 -207.54,59.511 -208.795,61.552C-209.829,63.235 -211.942,64.523 -213.947,63.644C-217.266,62.187 -219.834,63.265 -222.429,65.109C-224.11,66.303 -232.228,65.494 -233.585,64.032C-234.208,63.36 -234.475,62.585 -234.021,61.778C-233.619,61.062 -232.883,61.159 -232.276,61.504C-225.546,65.338 -220.83,62.191 -217.493,56.61C-216.745,55.358 -217.21,53.048 -216.438,50.988C-215.635,48.84 -219.992,48.311 -221.714,46.52C-222.875,45.311 -224.248,47.672 -224.116,47.878C-222.038,51.129 -225.836,51.02 -226.731,52.231C-226.463,53.742 -225.216,53.767 -224.554,54.437C-224.123,54.872 -223.466,55.689 -223.613,55.989C-224.57,57.938 -226.461,57.003 -227.524,56.52C-229.226,55.747 -232.687,57.189 -232.501,54.204C-232.239,50.024 -230.909,45.906 -229.989,41.773C-229.74,40.655 -228.755,40.288 -227.776,39.991L-227.862,39.948C-228.647,42.079 -227.864,43.114 -225.635,43.173C-222.672,43.251 -219.617,44.012 -216.86,42.329C-214.808,41.076 -212.745,41.519 -210.588,41.826C-209.363,42.001 -207.569,42.216 -207.467,40.382C-207.391,39.027 -208.451,37.948 -210.067,37.97C-211.217,37.985 -212.771,39.432 -213.267,37.204C-213.6,35.705 -213.494,33.842 -212.101,33.13C-209.299,31.697 -209.942,28.48 -208.212,26.568C-207.937,26.265 -207.635,25.655 -207.761,25.371C-208.997,22.565 -208.799,22.772 -206.682,20.353C-204.481,17.839 -201.455,16.328 -200.776,11.982C-200.312,9.009 -201.037,8.527 -202.717,7.14C-207.819,2.925 -213.395,5.061 -218.86,5.678C-219.765,5.78 -220.24,6.573 -220.228,7.494C-220.212,8.588 -219.354,8.512 -218.562,8.827C-215.286,10.129 -211.909,10.666 -208.421,10.825C-207.337,10.875 -205.802,10.761 -205.681,12.3C-205.575,13.648 -207.013,13.681 -207.898,13.72C-211.693,13.887 -213.839,15.498 -214.063,19.552C-214.125,20.65 -214.722,22.297 -216.411,22.393C-217.973,22.481 -218.798,21.363 -219.316,20.076C-220.219,17.838 -221.699,17.011 -224.388,18.044C-221.533,21.265 -220.442,23.505 -226.521,22.757C-228.184,22.553 -230.084,25.019 -232.446,24.597L-232.331,24.738C-232.584,23.116 -234.216,21.865 -233.702,20.065C-233.122,18.032 -235.106,17.701 -235.953,17.361C-237.604,16.7 -236.625,18.607 -237.123,19.204C-238.638,21.018 -241.202,19.17 -243.16,20.999C-240.556,17.325 -240.342,13.579 -240.2,9.481C-240.067,5.664 -236.553,7.13 -233.207,8.863C-236.136,4.214 -240.8,6.178 -244.339,2.935C-238.881,4.207 -237.093,1.932 -237.038,-2.245C-237.019,-3.672 -237.604,-5.415 -235.589,-6.025C-234.569,-6.333 -233.576,-5.981 -232.922,-5.105C-231.964,-3.822 -231.752,-2.387 -232.266,-0.85C-232.672,0.367 -235.03,1.246 -233.034,2.855C-232.475,3.305 -231.284,3.654 -230.779,3.363C-229.216,2.463 -227.613,1.29 -227.487,-0.703C-227.389,-2.273 -229.371,-4.767 -226.062,-4.734C-222.735,-4.702 -222.8,-2.111 -223.339,0.403C-223.395,0.663 -223.136,0.989 -222.831,1.788C-221.186,-0.323 -220.818,-3.065 -218.042,-4.276C-223.022,-6.377 -227.081,-9.413 -232.733,-8.118C-231.54,-10.987 -229.326,-8.848 -228.496,-10.511C-232.293,-14.652 -236.87,-14.612 -240.264,-10.739C-242.316,-8.396 -244.642,-6.183 -247.198,-4.427C-248.854,-3.289 -249.946,-2.223 -250.247,-0.244C-250.405,0.801 -250.347,2.608 -251.934,2.208C-253.252,1.875 -254.515,0.701 -255.434,-0.407C-256.266,-1.411 -255.261,-2.048 -254.363,-2.675C-252.894,-3.701 -251.028,-4.863 -252.28,-7.048C-253.308,-8.84 -254.942,-10.025 -257.275,-9.541C-258.227,-9.345 -259.196,-9.241 -260.141,-9.098C-260.099,-8.548 -260.196,-8.124 -260.032,-7.955C-258.974,-6.865 -256.35,-7.827 -256.418,-5.322C-256.447,-4.267 -257.416,-3.647 -258.317,-3.172C-260.365,-2.092 -261.241,-3.299 -262.172,-4.941C-263.573,-7.415 -265.245,-5.729 -266.839,-5.014C-267.587,-4.678 -268.577,-4.294 -269.114,-5.128C-269.847,-6.267 -268.835,-7.307 -268.016,-7.427C-263.562,-8.082 -263.104,-14.508 -257.741,-14.195C-256.07,-14.098 -255.749,-16.219 -258.055,-17.013C-260.06,-17.702 -261.539,-18.765 -261.172,-21.76C-258.4,-19.469 -256.227,-17.873 -253.947,-21.976C-252.464,-24.646 -249.972,-23.445 -248.066,-21.676C-247.107,-20.786 -246.146,-19.352 -244.73,-20.003C-242.937,-20.828 -245.399,-22.353 -244.134,-23.989C-239.824,-19.775 -232.32,-21.536 -228.79,-15.024C-227.479,-12.604 -216.373,-14.856 -213.513,-17.608C-209.939,-21.049 -209.652,-20.732 -207.446,-15.99C-206.098,-13.09 -203.481,-10.867 -200.311,-9.611C-199.242,-9.188 -197.47,-8.831 -197.297,-8.13C-195.633,-1.369 -188.424,-0.407 -184.713,4.176C-182.447,6.973 -182.478,9.43 -184.582,12.254C-187.217,15.789 -191.031,17.642 -194.754,19.733C-189.339,20.111 -185.154,16.961 -181.421,14.222C-177.854,11.606 -175.259,14.366 -175.109,15.499C-174.391,20.948 -169.437,22.257 -166.359,25.01C-158.167,32.337 -150.58,40.171 -143.549,48.57C-139.208,53.755 -134.465,58.656 -130.043,63.702C-125.922,68.406 -121.079,73.032 -116.293,77.412C-108.128,84.882 -100.967,93.268 -93.596,101.486C-87.653,108.11 -80.977,114.069 -74.855,120.54C-67.707,128.095 -60.685,135.826 -53.563,143.34C-48.682,148.491 -44.33,154.415 -38.442,158.859C-33.104,162.888 -28.931,168.474 -24.461,173.481C-22.029,176.206 -22.402,181.425 -17.187,182.099C-17.586,189.004 -9.749,186.798 -7.253,191.127C-4.84,195.311 -0.544,198.401 2.888,202.007C10.546,210.058 18.229,218.087 25.813,226.207C37.188,238.382 48.703,250.436 59.754,262.9C69.572,273.975 81.202,283.269 90.605,295.271C88.227,295.818 86.022,296.87 83.883,298.276C81.304,299.97 78.269,302.264 74.771,299.497C73.647,298.608 72.536,299.447 71.69,300.309C69.874,302.161 67.767,303.25 65.132,303.555C64.093,303.675 62.37,304.536 62.291,305.214C61.835,309.165 58.773,309.149 56.081,309.633C51.971,310.374 48.2,311.406 45.05,314.628C41.725,318.028 36.858,316.471 32.715,317.321C30.862,317.701 27.221,316.431 28.987,320.89C29.373,321.864 28.192,322.857 27.245,322.981C20.024,323.925 14.353,329.559 7.146,329.939C3.538,330.13 0.075,330.483 -3.386,331.344C-4.19,331.546 -5.351,331.468 -5.744,331.981C-8.841,336.023 -11.574,334.402 -14.845,330.468C-14.453,335.616 -15.397,337.971 -20.281,335.873C-22.418,334.955 -23.547,337.591 -24.564,339.301C-25.564,340.983 -26.743,342.27 -28.984,341.61C-31.267,340.938 -31.725,339.142 -31.249,337.263C-30.639,334.856 -32.346,333.719 -33.312,332.049C-34.527,329.947 -35.452,329.384 -36.579,331.883C-37.497,333.921 -39.437,334.569 -41.075,335.653C-42.595,336.658 -43.993,337.692 -41.857,339.438C-41.112,340.047 -39.894,340.593 -40.821,341.717C-41.688,342.768 -43.036,342.422 -44.05,341.825C-45.938,340.714 -47.825,338.626 -48.851,342.826C-49.806,341.326 -49.16,340.309 -48.609,339.351C-47.939,338.187 -46.918,337.07 -48.623,335.976C-50.239,334.939 -50.5,336.706 -51.3,337.342C-52.752,338.498 -54.478,340.016 -56.193,338.886C-58.75,337.205 -54.049,336.312 -55.595,334.062C-58.632,336.527 -61.931,337.051 -65.791,335.593C-67.635,334.898 -68.057,337.149 -67.722,338.668C-67.445,339.919 -66.562,341.023 -66.163,342.262C-65.714,343.66 -63.566,345.391 -65.946,346.51C-68.063,347.506 -67.976,344.885 -68.649,343.798C-69.905,341.769 -71.661,342.196 -73.496,342.304C-74.835,342.382 -76.239,342.172 -76.942,340.773C-77.733,339.201 -76.138,338.57 -75.654,337.488C-74.054,333.905 -72.106,331.976 -67.708,331.675C-64.259,331.439 -63.828,327.457 -66.611,325.16C-67.486,324.438 -68.991,323.964 -68.469,322.586C-67.899,321.082 -66.538,321.741 -65.489,322.21C-64.202,322.785 -62.88,323.387 -62.14,321.624C-61.486,320.068 -62.405,319.085 -63.794,318.525C-64.961,318.054 -66.062,317.409 -65.681,316.012C-64.844,312.946 -66.916,311.015 -68.216,308.785C-64.569,309.718 -61.098,311.52 -57.212,311.057C-53.888,310.661 -53.954,308.49 -55.495,306.488C-57.12,304.375 -59.416,304.047 -61.526,306.07C-63.408,307.875 -65.52,308.973 -68.182,308.81" style="fill:rgb(74,90,114);fill-rule:nonzero;"/>
                    </g>
                    <g transform="matrix(1,0,0,1,1224.03,254.57)">
                        <path d="M0,-9.578C1.03,-7.063 1.849,-5.157 2.587,-3.221C2.904,-2.391 2.764,-1.53 1.96,-1.022C0.897,-0.349 0.756,-1.717 0.339,-1.861C-2.506,-2.846 -2.447,0.149 -3.135,1.412C-5.17,5.151 -4.954,5.269 -8.72,6.51C-11.493,1.881 -3.559,1.831 -4.928,-2.21C-6.867,-2.457 -8.042,-1.353 -9.191,-0.112C-10.007,0.769 -11.078,1.71 -12.063,0.311C-13.103,-1.163 -12.236,-1.961 -10.705,-2.6C-8.427,-3.551 -6.555,-5.123 -5.049,-7.097C-6.214,-8.621 -7.957,-8.049 -8.252,-7.55C-10.954,-2.977 -13.926,-8.1 -16.735,-7.237C-17.618,-6.966 -17.729,-8.222 -17.497,-9.101C-16.555,-12.668 -11.5,-14.955 -8.404,-12.813C-6.806,-11.708 -6.094,-11.215 -4.965,-13.059C-3.253,-15.853 0.78,-16.088 2.754,-13.422C4.438,-11.148 5.649,-8.679 9.356,-9.706C11.364,-10.263 10.849,-8.374 10.348,-7.465C9.489,-5.906 9.649,-3.227 7.838,-2.918C5.974,-2.599 5.294,-5.136 4.133,-6.45C3.185,-7.523 2.791,-9.162 0,-9.578" style="fill:rgb(74,90,114);fill-rule:nonzero;"/>
                    </g>
                    <g transform="matrix(1,0,0,1,1173.71,298.916)">
                        <path d="M0,13.047C2.985,11.806 5.322,8.401 6.805,8.033C12.915,6.516 11.734,1.373 13.594,-2.207C14.266,-3.499 15.26,-4.66 17.732,-4.599C16.059,-2.45 13.996,-0.241 17.031,1.532C19.271,2.842 21.808,0.483 24.631,1.397C23.744,3.937 21.91,4.581 19.747,4.73C14.002,5.124 11.099,8.822 10.195,13.903C9.52,17.707 7.586,17.159 6.201,15.265C4.437,12.853 2.235,13.617 0,13.047" style="fill:rgb(74,90,114);fill-rule:nonzero;"/>
                    </g>
                    <g transform="matrix(1,0,0,1,1117.34,50.4148)">
                        <path d="M0,4.74C-1.09,7.078 -1.615,8.207 -2.633,10.392C-2.874,6.161 -3.617,4.801 -6.334,7.938C-7.325,9.083 -9.407,9.282 -11.266,9.547C-4.006,5.986 -5.5,-3.806 1.514,-7.486C-0.237,-5.583 4.413,-1.888 -0.881,-0.644C-2.443,-0.277 -0.711,1.475 0.61,1.696C4.236,2.305 5.078,4.823 4.819,7.891C4.688,9.449 5.82,12.147 3.085,12.19C0.832,12.226 0.739,9.838 0.606,7.98C0.562,7.344 0.378,6.718 0,4.74" style="fill:rgb(74,90,114);fill-rule:nonzero;"/>
                    </g>
                    <g transform="matrix(1,0,0,1,1233.29,308.512)">
                        <path d="M0,8.468C0.392,6.881 1.456,5.75 0.587,4.703C-0.441,3.466 -0.963,5.209 -1.75,5.382C-3.532,5.772 -3.331,4.149 -2.823,3.594C-0.276,0.808 2.147,-2.239 6.178,-3.036C7.831,-3.363 9.143,-2.7 10.081,-1.415C11.191,0.106 10.434,1.329 9.314,2.523C7.277,4.695 6.929,7.965 4.486,9.926C3.415,10.785 2.473,11.831 1.02,11.036C-0.193,10.374 -0.145,9.156 0,8.468" style="fill:rgb(74,90,114);fill-rule:nonzero;"/>
                    </g>
                    <g transform="matrix(1,0,0,1,1133.29,98.0643)">
                        <path d="M0,-8.306C-1.281,-6.44 -1.172,-3.044 -3.967,-2.577C-8.602,-1.802 -12.667,0.391 -17.049,1.747C-18.311,2.138 -19.645,2.713 -20.766,1.569C-21.429,0.894 -22.284,0.007 -22.308,-0.806C-22.348,-2.186 -20.959,-1.891 -20.036,-1.936C-14.715,-2.195 -9.653,-2.731 -6.739,-8.317C-6.115,-9.512 -4.034,-10.158 -2.492,-10.601C-1.035,-11.019 0.075,-10.248 0,-8.306" style="fill:rgb(74,90,114);fill-rule:nonzero;"/>
                    </g>
                    <g transform="matrix(1,0,0,1,1222.79,291.321)">
                        <path d="M0,-12.907C0.235,-5.662 5.986,-9.256 9.767,-7.589C6.357,-5.595 3.229,-4.284 1.157,-1.474C0.069,0 -1.964,-0.123 -3.388,-1.032C-5.166,-2.167 -4.498,-3.462 -3.012,-4.538C-2.733,-4.739 -2.543,-5.643 -2.694,-5.772C-8.729,-10.887 -0.469,-10.069 0,-12.907" style="fill:rgb(74,90,114);fill-rule:nonzero;"/>
                    </g>
                    <g transform="matrix(1,0,0,1,1193.18,185.26)">
                        <path d="M0,-14.202C0.083,-11.781 -0.574,-10.089 0.986,-7.901C2.979,-5.106 0.006,-4.059 -2.171,-3.152C-4.517,-2.175 -6.935,0 -8.922,-3.658C-10.377,-6.334 -9.191,-8.407 -6.839,-9.333C-4.147,-10.393 -2.291,-12.363 0,-14.202" style="fill:rgb(74,90,114);fill-rule:nonzero;"/>
                    </g>
                    <g transform="matrix(1,0,0,1,1215.43,292.626)">
                        <path d="M0,-6.359C-0.199,-5.22 -0.533,-4.196 -1.426,-4.247C-4.685,-4.431 -4.852,-3.607 -3.719,-0.567C-2.917,1.584 -5.211,1.947 -6.925,0.787C-9.116,-0.694 -11.179,-0.881 -13.346,0.778C-14.143,1.388 -15.161,1.958 -15.938,0.867C-16.39,0.232 -16.665,-0.699 -16.629,-1.478C-16.558,-3.049 -15.229,-2.607 -14.376,-2.461C-12.09,-2.069 -10.816,-3.243 -9.339,-4.803C-7.777,-6.452 -5.74,-7.83 -3.331,-8.128C-1.8,-8.317 -0.337,-8.046 0,-6.359" style="fill:rgb(74,90,114);fill-rule:nonzero;"/>
                    </g>
                    <g transform="matrix(1,0,0,1,1263.53,349.967)">
                        <path d="M0,-19.741C-2.151,-14.482 -4.162,-9.965 -3.296,-4.516C-2.881,-1.904 -7.652,-2.095 -9.341,0C-9.64,-0.355 -10.117,-0.673 -10.202,-1.073C-10.459,-2.279 -10.253,-3.607 -9.073,-4.091C-3.561,-6.35 -6.849,-7.259 -9.752,-8.318C-4.053,-9.949 -7.436,-18.424 0,-19.741" style="fill:rgb(74,90,114);fill-rule:nonzero;"/>
                    </g>
                    <g transform="matrix(1,0,0,1,1248.01,305.912)">
                        <path d="M0,-15.921C1.597,-15.421 4.891,-16.705 3.941,-13.359C3.133,-10.508 7.849,-5.651 1.353,-4.928C-0.295,-4.744 -1.389,0.784 -3.434,-4.154C-5.121,-8.232 -0.794,-7.276 0.792,-8.629C1.141,-8.926 1.367,-9.365 1.979,-10.174C-3.45,-10.852 -2.929,-13.16 0.152,-16.053C0.155,-16.055 0,-15.921 0,-15.921" style="fill:rgb(74,90,114);fill-rule:nonzero;"/>
                    </g>
                    <g transform="matrix(1,0,0,1,1222.79,343.768)">
                        <path d="M0,11.037C-0.389,9.082 -0.516,7.527 -1.302,5.997C-2.649,3.374 -0.645,1.934 1.16,0.917C2.787,0 4.858,0.042 5.914,1.97C7.04,4.027 6.08,5.831 4.298,7.058C2.69,8.167 1.017,9.147 0,11.037" style="fill:rgb(74,90,114);fill-rule:nonzero;"/>
                    </g>
                    <g transform="matrix(-0.236566,0.971615,0.971615,0.236566,1222.62,295.668)">
                        <path d="M1.333,-2.305C1.539,-4.111 1.743,-5.877 1.979,-7.945C-1.561,-4.299 -1.773,1.213 1.333,6.729C4.273,4.818 4.835,1.298 5.325,-1.284C5.975,-4.704 2.709,-1.243 1.333,-2.305" style="fill:rgb(74,90,114);fill-rule:nonzero;"/>
                    </g>
                    <g transform="matrix(1,0,0,1,1238.91,337.983)">
                        <path d="M0,-5.664C-0.834,-3.401 -2.522,-1.148 -3.164,1.627C-3.391,2.605 -5.447,3.142 -6.656,2.2C-8.016,1.142 -6.908,0.114 -6.119,-0.694C-4.693,-2.155 -4.363,-3.266 -6.431,-4.59C-7.285,-5.137 -6.781,-6.511 -5.901,-7.145C-4.545,-8.125 -2.982,-8.806 -1.28,-8.422C-0.135,-8.164 0.06,-7.092 0,-5.664" style="fill:rgb(74,90,114);fill-rule:nonzero;"/>
                    </g>
                    <g transform="matrix(0.151151,0.988511,0.988511,-0.151151,1226.01,263.233)">
                        <path d="M3.338,-3.303C0.808,-2.641 -0.88,-1.03 -0.486,1.648C-0.218,3.48 2.454,4.365 3.338,3.915C5.309,2.908 7.21,1.007 7.21,-1.489C7.21,-4.16 4.872,-3.074 3.338,-3.303" style="fill:rgb(74,90,114);fill-rule:nonzero;"/>
                    </g>
                    <g transform="matrix(1,0,0,1,1024.26,74.3278)">
                        <path d="M0,10.349C-1.517,8.533 -0.698,6.347 -2.431,5.131C-3.178,4.607 -4.597,3.479 -3.324,2.303C-2.29,1.346 -0.849,0.363 0.457,0.299C1.714,0.237 3.035,1.889 4.298,0.064C4.342,0 5.228,0.281 5.384,0.578C5.797,1.361 5.637,2.77 5.057,2.793C0.204,2.986 1.92,7.554 0,10.349" style="fill:rgb(74,90,114);fill-rule:nonzero;"/>
                    </g>
                    <g transform="matrix(1,0,0,1,1065.98,64.2771)">
                        <path d="M0,6.345C1.128,1.398 6.993,3.61 8.817,-0.176C8.994,-0.543 10.376,0.681 11.022,1.411C11.879,2.376 12.08,3.471 11.432,4.592C10.721,5.819 9.412,6.888 8.203,6.251C5.404,4.775 2.82,5.768 0,6.345" style="fill:rgb(74,90,114);fill-rule:nonzero;"/>
                    </g>
                    <g transform="matrix(0.142297,-0.989824,-0.989824,-0.142297,1244.48,338.047)">
                        <path d="M-5.433,-4.038C-7.249,-4.24 -8.467,-3.527 -8.024,-2.226C-7.113,0.447 -8.16,3.918 -5.433,5.716C-4.574,6.283 -1.554,5.251 -2.022,3.96C-3.018,1.221 -3.405,-1.976 -5.433,-4.038" style="fill:rgb(74,90,114);fill-rule:nonzero;"/>
                    </g>
                    <g transform="matrix(1,0,0,1,1159.17,100.688)">
                        <path d="M0,2.478C-2.471,3.172 -4.379,3.566 -6.151,4.544C-7.194,5.12 -8.405,5.403 -9.171,4.042C-9.831,2.87 -9.607,1.739 -8.527,0.959C-6.857,-0.246 -5.699,-2.925 -3.322,-2.171C-1.535,-1.605 -2.068,1.41 0,2.478" style="fill:rgb(74,90,114);fill-rule:nonzero;"/>
                    </g>
                    <g transform="matrix(-0.116151,-0.993232,-0.993232,0.116151,1183.18,376.161)">
                        <path d="M-4.197,-4.369C-7.235,-3.302 -5.528,-0.444 -6.18,1.53C-6.593,2.776 -5.533,3.927 -4.197,3.535C-1.402,2.71 -1.611,0.083 -1.543,-2.094C-1.499,-3.467 -2.429,-4.528 -4.197,-4.369" style="fill:rgb(74,90,114);fill-rule:nonzero;"/>
                    </g>
                    <g transform="matrix(1,0,0,1,1187.95,263.949)">
                        <path d="M0,-9.496C-0.482,-6.89 -1.485,-4.864 -4.242,-4.257C-5.375,-4.007 -6.521,-3.795 -7.627,-3.45C-9.1,-2.991 -10.816,0 -11.923,-2.954C-12.679,-4.972 -9.669,-5.073 -8.271,-5.221C-4.918,-5.576 -2.345,-7.119 0,-9.496" style="fill:rgb(74,90,114);fill-rule:nonzero;"/>
                    </g>
                    <g transform="matrix(-0.429637,0.903002,0.903002,0.429637,1272.89,343.132)">
                        <path d="M5.153,-7.8C2.372,-6.404 2.432,-3.888 2.592,-1.501C2.698,0.097 3.092,2.382 5.153,2.011C7.866,1.524 5.676,-0.257 5.384,-1.398C4.859,-3.45 6.85,-5.516 5.153,-7.8" style="fill:rgb(74,90,114);fill-rule:nonzero;"/>
                    </g>
                    <g transform="matrix(1,0,0,1,1158.19,391.101)">
                        <path d="M0,2.629C1.143,0.024 3.936,-0.474 6.009,-1.817C6.631,-2.221 7.857,-2.081 8.082,-1.129C8.459,0.467 6.98,1.526 6.491,2.903C6.148,3.866 4.716,4.85 4.313,3.853C3.264,1.252 1.22,4.302 0,2.629" style="fill:rgb(74,90,114);fill-rule:nonzero;"/>
                    </g>
                    <g transform="matrix(1,0,0,1,1255.82,355.78)">
                        <path d="M0,-3.354C4.338,-2.771 8.341,-2.206 13.253,-4.652C7.739,1.085 3.93,1.298 0,-3.354" style="fill:rgb(74,90,114);fill-rule:nonzero;"/>
                    </g>
                    <g transform="matrix(1,0,0,1,1185.28,294.745)">
                        <path d="M0,-3.993C-0.452,-3.718 -0.842,-3.272 -1.221,-3.281C-4.332,-3.354 -6.327,-1.444 -8.426,0.452C-9.233,1.182 -10.675,1.714 -11.392,0.285C-11.993,-0.913 -10.583,-1.285 -9.914,-1.925C-7.634,-4.106 -4.478,-4.198 -1.754,-5.317C-0.806,-5.707 -0.27,-5.026 0,-3.993" style="fill:rgb(74,90,114);fill-rule:nonzero;"/>
                    </g>
                    <g transform="matrix(-0.343077,-0.939307,-0.939307,0.343077,1169.58,407.596)">
                        <path d="M-4.379,-3.493C-5.153,-1.764 -7,-0.284 -6.511,2.018C-6.328,2.877 -4.432,3.789 -4.379,3.246C-4.102,0.388 -0.223,-0.178 -0.563,-2.89C-0.68,-3.816 -2.784,-3.872 -4.379,-3.493" style="fill:rgb(74,90,114);fill-rule:nonzero;"/>
                    </g>
                    <g transform="matrix(0.308854,-0.951109,-0.951109,-0.308854,1082.21,21.8084)">
                        <path d="M-4.881,-2.642C-5.283,-0.557 -5.739,1.306 -5.97,3.196C-6.101,4.259 -6.373,5.828 -4.881,6.035C-3.522,6.224 -3.208,4.725 -2.803,3.677C-1.851,1.22 -1.596,-1.052 -4.881,-2.642" style="fill:rgb(74,90,114);fill-rule:nonzero;"/>
                    </g>
                    <g transform="matrix(0.473516,0.880785,0.880785,-0.473516,1208.89,317.576)">
                        <path d="M5.98,-3.227C4.236,0.394 5.034,3.827 5.191,7.272C5.229,8.105 4.873,9.025 5.98,9.135C6.853,9.222 7.665,8.443 7.648,7.624C7.571,3.92 7.549,0.177 5.98,-3.227" style="fill:rgb(74,90,114);fill-rule:nonzero;"/>
                    </g>
                    <g transform="matrix(1,0,0,1,1102.27,104.612)">
                        <path d="M0,-4.963C2.879,-5.342 5.732,-5.547 6.979,-2.804C7.581,-1.479 5.56,-0.578 4.439,-0.312C0.679,0.584 1.603,-3.428 0,-4.963" style="fill:rgb(74,90,114);fill-rule:nonzero;"/>
                    </g>
                    <g transform="matrix(-0.370267,-0.928925,-0.928925,0.370267,1074.71,6.14937)">
                        <path d="M-3.448,-3.955C-5.24,-2.712 -5.943,-0.974 -5.48,1.156C-5.267,2.138 -4.79,3.061 -3.448,2.643C-4.502,-0.349 0.369,0.331 -0.368,-2.21C-0.696,-3.338 -1.733,-4.538 -3.448,-3.955" style="fill:rgb(74,90,114);fill-rule:nonzero;"/>
                    </g>
                    <g transform="matrix(1,0,0,1,1193.84,381.284)">
                        <path d="M0,8.905C-1.014,5.412 0.966,2.946 0.65,0C5.018,3.21 5.006,3.379 0,8.905" style="fill:rgb(74,90,114);fill-rule:nonzero;"/>
                    </g>
                    <g transform="matrix(-0.965296,-0.261159,-0.261159,0.965296,1093.73,18.9425)">
                        <path d="M1.07,-5.356C-0.45,-5.049 -2.421,-5.344 -2.583,-3.492C-2.781,-1.227 -0.337,-1.032 1.07,-0.125C2.311,0.676 2.84,-0.377 3.031,-1.383C3.376,-3.2 2.543,-4.473 1.07,-5.356" style="fill:rgb(74,90,114);fill-rule:nonzero;"/>
                    </g>
                    <g transform="matrix(0.988463,0.151461,0.151461,-0.988463,1055.98,92.0054)">
                        <path d="M0.623,-0.163C-0.128,1.907 0.828,3.589 -0.249,5.081C-1.008,6.132 -0.869,7.404 0.623,7.78C2.309,8.204 2.968,7.108 3.123,5.602C3.347,3.408 2.995,1.449 0.623,-0.163" style="fill:rgb(74,90,114);fill-rule:nonzero;"/>
                    </g>
                    <g transform="matrix(1,0,0,1,1215.53,262.431)">
                        <path d="M0,8.449C0,6.215 -0.073,4.465 0.024,2.725C0.096,1.474 0.901,0.568 2.054,0.178C2.578,0 3.462,0.054 3.827,0.39C4.94,1.414 4.198,2.556 3.59,3.486C2.555,5.066 2.302,7.206 0,8.449" style="fill:rgb(74,90,114);fill-rule:nonzero;"/>
                    </g>
                    <g transform="matrix(0.139758,-0.990186,-0.990186,-0.139758,1235.4,321.685)">
                        <path d="M-2.525,-2.684C-4.29,-2.513 -5.098,-1.51 -5.112,-0.085C-5.127,1.544 -4.199,2.75 -2.525,2.955C-1.017,3.139 -0.557,2.024 -0.617,0.754C-0.688,-0.726 -0.957,-2.165 -2.525,-2.684" style="fill:rgb(74,90,114);fill-rule:nonzero;"/>
                    </g>
                    <g transform="matrix(1,0,0,1,1202.07,272.492)">
                        <path d="M0,4.57C1.613,2.348 2.953,-0.149 5.699,1.633C8.938,3.735 7.768,4.719 4.508,4.58C3.196,4.523 1.882,4.57 0,4.57" style="fill:rgb(74,90,114);fill-rule:nonzero;"/>
                    </g>
                    <g transform="matrix(1,0,0,1,1068.87,38.7582)">
                        <path d="M0,1.607C1.978,0.402 3.081,-2.328 6.104,-1.881C4.43,3.935 4.43,3.935 0,1.607" style="fill:rgb(74,90,114);fill-rule:nonzero;"/>
                    </g>
                    <g transform="matrix(1,0,0,1,1193.85,418.621)">
                        <path d="M0,1.932C4.41,-2.411 5.856,-2.075 7.762,4.343C5.273,1.314 2.822,1.006 0,1.932" style="fill:rgb(74,90,114);fill-rule:nonzero;"/>
                    </g>
                    <g transform="matrix(-0.22085,-0.975308,-0.975308,0.22085,1065.89,2.12552)">
                        <path d="M-2.393,-3.357C-2.859,-1.774 -4.822,-0.76 -4.469,1.193C-4.403,1.554 -2.86,2.11 -2.393,1.855C-0.627,0.889 -0.175,-0.806 -0.766,-2.695C-0.959,-3.315 -1.519,-3.713 -2.393,-3.357" style="fill:rgb(74,90,114);fill-rule:nonzero;"/>
                    </g>
                    <g transform="matrix(1,0,0,1,1061.87,77.6578)">
                        <path d="M0,2.311C2.443,1.521 4.179,-0.711 7.415,-1.087C6.396,3.011 2.701,2.076 0.479,3.398C0.359,3.125 0.239,2.853 0,2.311" style="fill:rgb(74,90,114);fill-rule:nonzero;"/>
                    </g>
                    <g transform="matrix(-0.126641,-0.991949,-0.991949,0.126641,1093.49,27.5271)">
                        <path d="M-2.544,-2.359C-4.021,-2.149 -4.43,-1.179 -4.27,0.141C-4.144,1.183 -3.751,2.239 -2.544,2.174C-0.82,2.079 -0.518,0.677 -0.54,-0.72C-0.561,-1.96 -1.361,-2.439 -2.544,-2.359" style="fill:rgb(74,90,114);fill-rule:nonzero;"/>
                    </g>
                    <g transform="matrix(1,0,0,1,1138.08,60.1762)">
                        <path d="M0,-3.016C-0.041,-2.858 -0.068,-2.695 -0.125,-2.543C-0.941,-0.383 -2.197,1.298 -4.79,0.455C-5.786,0.13 -5.992,-1.224 -5.396,-2.08C-3.913,-4.212 -1.977,-4.314 0.111,-2.881C0.115,-2.875 0,-3.016 0,-3.016" style="fill:rgb(74,90,114);fill-rule:nonzero;"/>
                    </g>
                    <g transform="matrix(1,0,0,1,1142.75,65.7612)">
                        <path d="M0,6.793C-0.103,6.668 -0.209,6.545 -0.308,6.417C-1.67,4.644 -2.564,2.752 -1.008,0.696C-0.481,0 0.63,0.108 1.187,0.719C3.131,2.852 0.648,4.128 0.077,5.783C-0.025,6.083 -0.062,6.405 -0.107,6.733C-0.086,6.75 0,6.793 0,6.793" style="fill:rgb(74,90,114);fill-rule:nonzero;"/>
                    </g>
                    <g transform="matrix(1,0,0,1,1253.64,501.032)">
                        <path d="M0,6.035C2.006,4.456 6.609,6.769 4.419,1.775C4,0.819 6.007,0.27 7.125,0.181C9.481,-0.01 11.744,-0.084 13.096,-2.576C13.653,-3.606 15.369,-3.621 15.477,-2.624C15.885,1.161 18.949,1.636 21.464,3.069C23.647,4.314 22.694,6.137 21.465,7.728C20.298,9.238 19.228,9.656 18.026,7.757C16.728,5.703 14.987,6.483 13.151,6.926C8.852,7.96 4.479,9.075 0,6.035" style="fill:rgb(74,90,114);fill-rule:nonzero;"/>
                    </g>
                    <g transform="matrix(1,0,0,1,1278.32,463.283)">
                        <path d="M0,-12.052C-1.559,-8.748 0.562,-7.115 2.527,-5.758C4.187,-4.611 6.012,-3.4 4.129,-1.614C2.427,0 1.291,-2.41 0.224,-3.445C-0.79,-4.428 -1.475,-5.752 -2.539,-7.26C-3.177,-5.806 -3.441,-4.445 -4.234,-3.555C-5.702,-1.909 -7.729,-2.118 -9.094,-3.537C-10.521,-5.019 -9.162,-6.34 -7.896,-7.178C-5.317,-8.884 -2.638,-10.436 0,-12.052" style="fill:rgb(74,90,114);fill-rule:nonzero;"/>
                    </g>
                    <g transform="matrix(1,0,0,1,1236.88,481.101)">
                        <path d="M0,5.225C-0.099,5.553 -0.128,6.344 -0.393,6.432C-3.537,7.479 -5.462,3.469 -8.898,4.319C-9.567,4.485 -8.742,1.456 -7.729,0.216C-5.708,-2.254 -3.891,-0.749 -2.328,0.806C-1.175,1.954 -0.143,3.301 0,5.225" style="fill:rgb(74,90,114);fill-rule:nonzero;"/>
                    </g>
                    <g transform="matrix(1,0,0,1,1251.62,493.45)">
                        <path d="M0,-10.51C0.749,-7.347 -1.257,-4.157 2.68,-2.51C-0.039,-2.675 -3.121,0 -3.908,-2.006C-4.981,-4.74 -3.485,-8.033 0,-10.51" style="fill:rgb(74,90,114);fill-rule:nonzero;"/>
                    </g>
                    <g transform="matrix(1,0,0,1,1234.74,466.606)">
                        <path d="M0,1.946C-0.502,2.758 -0.762,3.489 -0.976,3.476C-3.881,3.298 -6.787,3.08 -9.672,2.71C-10.29,2.63 -10.807,1.502 -10.301,1.118C-8.622,-0.157 -6.77,-1.311 -4.591,-1.419C-2.093,-1.543 -2.538,1.882 0,1.946" style="fill:rgb(74,90,114);fill-rule:nonzero;"/>
                    </g>
                    <g transform="matrix(-0.0500775,-0.998745,-0.998745,0.0500775,1267.84,465.224)">
                        <path d="M-7.703,-7.051C-8.814,-2.877 -8.713,1.19 -8.641,5.254C-8.627,6.059 -8.778,7.076 -7.703,7.207C-6.724,7.327 -6.113,6.497 -6.284,5.626C-7.089,1.505 -5.434,-2.881 -7.703,-7.051" style="fill:rgb(74,90,114);fill-rule:nonzero;"/>
                    </g>
                    <g transform="matrix(0.981373,0.19211,0.19211,-0.981373,1242.89,478.392)">
                        <path d="M0.399,0.106C-0.973,0.405 -3.52,-0.831 -3.8,1.052C-4.13,3.283 -1.195,3.54 0.399,4.38C1.739,5.086 3.015,4.076 3.256,2.587C3.58,0.595 2.252,0.057 0.399,0.106" style="fill:rgb(74,90,114);fill-rule:nonzero;"/>
                    </g>
                    <g transform="matrix(0.29963,0.954055,0.954055,-0.29963,1235.31,493.657)">
                        <path d="M4.219,-3.432C4.278,-0.826 4.114,0.926 2.785,2.528C1.973,3.505 2.964,4.746 4.219,5.052C5.723,5.418 5.653,4.196 5.694,3.241C5.78,1.229 7.004,-0.924 4.219,-3.432" style="fill:rgb(74,90,114);fill-rule:nonzero;"/>
                    </g>
                    <g transform="matrix(1,0,0,1,1247.07,444.827)">
                        <path d="M0,6.927C-1.301,6.656 -1.09,5.426 -1.498,4.623C-2.181,3.281 -2.663,1.856 -1.724,0.451C-1.544,0.183 -0.715,0 -0.481,0.174C0.833,1.155 -0.278,2.615 0.106,3.833C0.419,4.823 1.172,5.936 0,6.927" style="fill:rgb(74,90,114);fill-rule:nonzero;"/>
                    </g>
                    <g transform="matrix(-0.674405,0.738361,0.738361,0.674405,1220.99,467.197)">
                        <path d="M2.544,-6.943C2.495,-5.832 2.311,-5.31 2.484,-4.97C3.35,-3.274 -0.45,-1.523 2.544,0.031C2.963,0.247 4.214,-0.139 4.218,-0.276C4.293,-2.349 5.621,-4.695 2.544,-6.943" style="fill:rgb(74,90,114);fill-rule:nonzero;"/>
                    </g>
                </g>
            </g>
        </g>
    </g>
</svg>
